<svg xmlns="http://www.w3.org/2000/svg" width="90" height="90" version="1.1">
    <defs>
    	<clipPath id="cut-top">
    		<path d="M25 5 L 85 5 L 42 55 Z" transform="translate(17,-7)"/>
    	</clipPath>
    	<clipPath id="cut-top-shadow">
    		<path d="M25 5 L 85 5 L 42 55 Z" clip-path="url(#cut-top)" transform="translate(-6,2)"/>
    	</clipPath>
    	<clipPath id="cut-bottom">
    		<path d="M5 85 L 65 85 L 48 35 Z" transform="translate(-17,7)"/>
    	</clipPath>
    	<clipPath id="cut-bottom-shadow">
    		<path d="M5 85 L 65 85 L 48 35 Z" clip-path="url(#cut-bottom)" transform="translate(6,-2)"/>
    	</clipPath>
    	<filter id="filter-top" x="0" y="0">
    		<feGaussianBlur in="SourceGraphic" stdDeviation="3"/>
    	</filter>
    </defs>

    <path d="M25 5 L 85 5 L 42 55 Z" fill="#52B3FF"/>
    <path d="M5 85 L 65 85 L 48 35 Z" fill="#00FFC7"/>

 	<path d="M25 5 L 85 5 L 42 55 Z" fill="#BAE1FF" transform="translate(-17,7)" clip-path="url(#cut-top)"/>
    <path d="M5 85 L 65 85 L 48 35 Z" fill="#99FFE8" transform="translate(17,-7)" clip-path="url(#cut-bottom)"/>
    <polyline points="25 5,85 5,42 55" fill="none" stroke="#000000" stroke-width="3" transform="translate(-11,5)" filter="url(#filter-top)" clip-path="url(#cut-top-shadow)"/>
    <polyline points="65 85,5 85,48 35" fill="none" stroke="#000000" stroke-width="3" transform="translate(11,-5)" filter="url(#filter-top)" clip-path="url(#cut-bottom-shadow)"/>

    <circle cx="45" cy="45" r="10" fill="#FFFFFF"/>
	<path d="M38.86 25.95c.08-.64.14-1.29.14-1.95s-.06-1.31-.14-1.95l4.23-3.31c.38-.3.49-.84.24-1.28l-4-6.93c-.25-.43-.77-.61-1.22-.43l-4.98 2.01c-1.03-.79-2.16-1.46-3.38-1.97L29 4.84c-.09-.47-.5-.84-1-.84h-8c-.5 0-.91.37-.99.84l-.75 5.3c-1.22.51-2.35 1.17-3.38 1.97L9.9 10.1c-.45-.17-.97 0-1.22.43l-4 6.93c-.25.43-.14.97.24 1.28l4.22 3.31C9.06 22.69 9 23.34 9 24s.06 1.31.14 1.95l-4.22 3.31c-.38.3-.49.84-.24 1.28l4 6.93c.25.43.77.61 1.22.43l4.98-2.01c1.03.79 2.16 1.46 3.38 1.97l.75 5.3c.08.47.49.84.99.84h8c.5 0 .91-.37.99-.84l.75-5.3c1.22-.51 2.35-1.17 3.38-1.97l4.98 2.01c.45.17.97 0 1.22-.43l4-6.93c.25-.43.14-.97-.24-1.28l-4.22-3.31zM24 31c-3.87 0-7-3.13-7-7s3.13-7 7-7 7 3.13 7 7-3.13 7-7 7z" fill="#999999" transform="translate(27,27) scale(0.75)"/>

</svg>
